<?xml version="1.0" standalone="no"?><!DOCTYPE svg PUBLIC "-//W3C//DTD SVG 1.1//EN" "http://www.w3.org/Graphics/SVG/1.1/DTD/svg11.dtd"><svg t="1769069951216" class="icon" viewBox="0 0 1024 1024" version="1.1" xmlns="http://www.w3.org/2000/svg" p-id="5543" xmlns:xlink="http://www.w3.org/1999/xlink" width="200" height="200"><path d="M634.772437 264.26084l-2.273165-28.934453 101.424762-7.801905 151.556302 12.054229-7.780392 24.674958H634.772437z m175.048067 216.746667l46.087171-199.142185H637.045602v199.142185h172.774902z m-22.946779-175.707787l-36.25591 156.948795H655.976695V305.29972h130.89703z m44.947003 0l-36.25591 156.948795h-29.364706l36.25591-156.948795H831.820728z m-264.92056 14.77916L235.921569 275.497591h-0.179272c-10.892549 0-34.43451 51.995966-36.600112 71.170868-0.365714 1.591933 0.014342 3.262745 1.025434 4.546331 3.779048 4.546331 16.557535 5.485714 26.84056 6.209972 2.502633 0.179272 4.847507 0.344202 7.09916 0.566499l33.344538-26.474846 293.74028 40.350476c0.975238 0.107563 1.950476 0.157759 2.932885 0.157759 13.760896-0.107563 25.069356-10.892549 25.822297-24.631933 0.760112-13.739384-9.293445-25.700392-22.961121-27.321008h-0.08605zM285.379048 687.879888h-30.820393l6.826667 7.18521h192.40874l27.070028-24.495686v-3.822073l2.273165 6.324706c0.996751 2.88986 4.187787 4.546331 8.09591 4.732773 0.523473 3.162353 1.161681 6.27451 1.936135 9.322129l-1.247731 0.953725c-5.414006 4.116078-7.572437 10.419272-4.775799 14.105098l6.826667 8.841681c1.842913 2.438095 5.392493 3.047619 9.099832 1.97916 1.520224 2.818151 3.097815 5.571765 4.732773 8.253669l-0.932213 1.31944c-3.893782 5.571765-3.979832 12.240672-0.179272 14.879552l9.099832 6.346218c2.524146 1.749692 6.095238 1.226218 9.343642-0.953725 2.258824 2.23014 4.610868 4.359888 7.048963 6.389243l-0.451764 1.548908c-1.97916 6.52549 0 12.871709 4.410084 14.212661l10.648739 3.205378c2.932885 0.882017 6.188459-0.681232 8.619384-3.757535 2.818151 1.412661 5.70084 2.703417 8.640896 3.886611v1.591933c0.136246 6.826667 3.979832 12.233501 8.597871 12.147451l11.100505-0.229468c3.047619 0 5.621961-2.574342 6.984425-6.209972 3.112157 0.451765 6.303193 0.795966 9.487059 0.99675l0.523474 1.477199c2.273165 6.410756 7.572437 10.397759 11.917983 8.870365l10.483809-3.635631c2.88986-1.003922 4.546331-4.187787 4.732773-8.074397 3.162353-0.523473 6.281681-1.161681 9.350813-1.936135l0.953725 1.247731c4.116078 5.414006 10.419272 7.550924 14.076415 4.775798l8.848851-6.826666c2.438095-1.864426 3.047619-5.414006 1.97916-9.099832 2.818151-1.520224 5.571765-3.104986 8.26084-4.754286l1.31944 0.9107c5.571765 3.893782 12.240672 3.958319 14.879552 0.179272l6.346218-9.099832c1.756863-2.524146 1.233389-6.095238-0.953725-9.350812 2.215798-2.258824 4.345546-4.603697 6.389244-7.034622l1.548907 0.480448c6.503978 1.957647 12.850196 0 14.191149-4.431596l3.205378-10.64874c0.480448-1.807059 0.16493-3.736022-0.860504-5.299272h31.845826v-202.433613h42.150364c8.734118 0 15.919328 0.387227 15.919328-10.32605v-6.618712H637.160336v16.787003h7.801905v22.430476h-1.046947l-11.100504 0.229468c-3.047619 0-5.61479 2.567171-6.984426 6.209972-3.119328-0.480448-6.281681-0.795966-9.487059-1.003922l-0.523473-1.477199c-2.273165-6.43944-7.572437-10.419272-11.917983-8.891876l-10.691765 3.707339c-2.88986 0.996751-4.546331 4.187787-4.71126 8.074397-3.155182 0.530644-6.267339 1.176022-9.343642 1.936135l-0.932213-1.226219c-4.094566-5.414006-10.419272-7.550924-14.083585-4.775798l-8.848852 6.826667c-2.438095 1.864426-3.047619 5.414006-1.979159 9.099832-2.818151 1.513053-5.571765 3.090644-8.25367 4.732773l-1.31944-0.910701c-5.571765-3.886611-12.240672-3.958319-14.858039-0.179271l-6.346218 9.099832c-1.749692 2.524146-1.204706 6.095238 0.953725 9.343641-2.215798 2.258824-4.345546 4.603697-6.389244 7.027451l-1.548907-0.473277c-6.503978-1.97916-12.871709 0-14.191149 4.410084l-3.277086 10.713277c-0.889188 2.932885 0.724258 6.159776 3.80056 8.597871-1.40549 2.839664-2.717759 5.736695-3.908123 8.691093h-1.591933c-6.826667 0.136246-12.233501 3.979832-12.147451 8.597871l0.25098 11.122017c0 3.047619 2.574342 5.61479 6.209972 6.977254-0.451765 3.119328-0.795966 6.281681-1.003921 9.487059l-1.498712 0.523474c-2.940056 0.960896-5.528739 2.760784-7.43619 5.184538l2.273165-93.579832-197.650644 125.583417z m444.952381-71.328627h3.506554v28.41098l-0.544986-1.706667c-1.003922-2.88986-4.187787-4.546331-8.074398-4.732773-0.523473-3.162353-1.161681-6.27451-1.928963-9.343641l1.226218-0.932213c4.352717-3.327283 6.582857-8.060056 5.815575-11.695686z m-28.955967-43.491317v-5.414006h32.462521V608.089636h-9.099832l-2.072381-2.753614c-1.842913-2.430924-5.414006-3.047619-9.099832-2.000672-1.513053-2.818151-3.090644-5.571765-4.732773-8.26084l0.910701-1.31944c3.893782-5.571765 3.958319-12.233501 0.179271-14.872381l-8.547675-5.822745z m-9.58028-17.0093l-8.074398-2.932885-9.436862 4.008516-9.508572-6.281681 1.204706-8.576359-2.273165-2.574341V517.951821l70.19563 0.795966v40.393502h-36.736359l-5.37098-3.090645z m42.057143 149.842465h-17.037983c0.49479-1.161681 1.003922-2.273165 1.477199-3.477871h1.591932c6.826667-0.136246 12.240672-3.979832 12.125939-8.597871l-0.229468-11.100504c0-3.047619-2.574342-5.621961-6.209972-6.984426 0.451765-3.119328 0.795966-6.303193 0.996751-9.487059l1.477199-0.523473 0.544986-0.200785h5.256246v40.371989z m-177.206499-47.765154c0-20.795518 12.527507-39.540168 31.731093-47.492661 19.203585-7.959664 41.318543-3.563922 56.018823 11.14353 14.70028 14.70028 19.103193 36.815238 11.14353 56.025994-7.952493 19.203585-26.697143 31.731092-47.492661 31.731092-28.375126-0.035854-51.36493-23.032829-51.400785-51.407955z m0 0" p-id="5544" fill="#1296db"></path><path d="M14.972773 551.22465l3.865098 27.428571 110.997871 33.982745-4.388571 1.527395a5.673591 5.673591 0 0 0-3.255574 5.550252c-2.165602 0.365714-4.273838 0.795966-6.367731 1.31944l-0.638208-0.838991c-2.796639-3.685826-7.09916-5.141513-9.58028-3.255575l-6.0307 4.546331a5.674308 5.674308 0 0 0-1.340953 6.252997c-1.907451 0.996751-3.779048 2.079552-5.614789 3.226891l-0.910701-0.638207c-3.80056-2.63888-8.325378-2.710588-10.125266-0.136247l-4.324033 6.209972a5.685064 5.685064 0 0 0 0.659719 6.367731 67.825658 67.825658 0 0 0-4.345546 4.804482l-1.046947-0.322689c-4.431597-1.340952-8.75563 0-9.66633 3.004594l-2.273165 7.228235c-0.41591 2.294678 0.602353 4.603697 2.574341 5.844258-0.953725 1.928964-1.842913 3.893782-2.660392 5.915966h-1.089972c-4.546331 0-8.325378 2.710588-8.26084 5.844258l0.157759 7.572437a5.679328 5.679328 0 0 0 4.230812 4.754286c-0.322689 2.115406-0.544986 4.273838-0.681232 6.460952l-1.025434 0.365714c-4.367059 1.527395-7.077647 5.163025-6.052213 8.117423l2.48112 7.142185a5.653513 5.653513 0 0 0 5.664986 3.205378c0.365714 2.136919 0.795966 4.273838 1.31944 6.346219l-0.846162 0.638207c-3.685826 2.796639-5.141513 7.09916-3.255575 9.601793l4.546331 6.0307a5.687933 5.687933 0 0 0 6.231484 1.340952c1.003922 1.914622 2.079552 3.786218 3.226891 5.621961l-0.638207 0.9107c-2.63888 3.80056-2.710588 8.325378-0.136247 10.125266l6.209972 4.324034a5.685064 5.685064 0 0 0 6.367732-0.65972c1.548908 1.498711 3.14084 2.961569 4.804481 4.345546l-0.322689 1.046947c-1.340952 4.546331 0 8.75563 3.004594 9.666331l7.235406 2.273165c2.294678 0.430252 4.610868-0.595182 5.844258-2.574342 1.928964 0.968067 3.893782 1.857255 5.915966 2.660392v1.06846c0 4.546331 2.710588 8.325378 5.844258 8.26084l7.550924-0.157759a5.68865 5.68865 0 0 0 4.754286-4.230812c2.136919 0.322689 4.273838 0.544986 6.460952 0.681232l0.358544 1.003922c1.520224 4.367059 5.141513 7.077647 8.117423 6.052213l7.142185-2.481121a5.675742 5.675742 0 0 0 3.205378-5.507227c2.136919-0.365714 4.273838-0.795966 6.367731-1.319439l0.638207 0.846162c2.796639 3.685826 7.077647 5.141513 9.58028 3.255574l6.030701-4.54633a5.687933 5.687933 0 0 0 1.340952-6.231485c1.921793-1.003922 3.80056-2.079552 5.61479-3.226891l0.9107 0.609524c3.80056 2.63888 8.325378 2.703417 10.125266 0.136247l4.324034-6.209972a5.685064 5.685064 0 0 0-0.65972-6.367731c1.513053-1.513053 2.961569-3.112157 4.345546-4.797311l1.046947 0.315518c4.431597 1.348123 8.75563 0 9.666331-2.997423l2.273165-7.256919c0.408739-2.280336-0.609524-4.589356-2.574342-5.822745 0.975238-1.921793 1.857255-3.893782 2.660392-5.915966h1.06846c4.546331 0 8.325378-2.703417 8.26084-5.844258l-0.157759-7.550924a5.697255 5.697255 0 0 0-4.230812-4.754286c0.322689-2.136919 0.544986-4.273838 0.681232-6.460953l0.996751-0.344201c4.367059-1.527395 7.09916-5.163025 6.052213-8.117423l-2.481121-7.142185a5.71088 5.71088 0 0 0-5.507227-3.205378c-0.365714-2.151261-0.803137-4.273838-1.319439-6.367731l0.838991-0.638208c3.685826-2.796639 5.141513-7.09916 3.255574-9.573109l-4.54633-6.0307a5.679328 5.679328 0 0 0-6.231485-1.362465c-1.003922-1.928964-2.079552-3.80056-3.226891-5.621961l0.616695-0.889188c0.136246-0.200784 0.25098-0.408739 0.365714-0.609523l69.578936 22.996974 78.470812-51.36493L14.972773 551.22465z m120.549468 183.129636c-19.318319 0-34.986667-15.661176-34.986667-34.979496 0-19.32549 15.661176-34.979496 34.986667-34.979496s34.986667 15.661176 34.986667 34.979496c0 19.289636-15.596639 34.950812-34.893446 35.029692l-0.093221-0.050196z m0 0" p-id="5545" fill="#1296db"></path><path d="M146.758992 717.932997a5.272022 5.272022 0 0 0 5.076974 1.362465c1.81423-0.487619 3.226891-1.90028 3.71451-3.71451 0.487619-1.81423-0.028683-3.750364-1.355294-5.076974a5.272022 5.272022 0 0 0-5.076975-1.362465c-1.81423 0.487619-3.226891 1.90028-3.71451 3.714509a5.234734 5.234734 0 0 0 1.355295 5.076975z m0 0M124.471933 710.446611a5.247641 5.247641 0 0 1-0.007171 7.429019 5.254095 5.254095 0 0 1-7.42902 0 5.254095 5.254095 0 0 1 0-7.429019 5.231148 5.231148 0 0 1 3.71451-1.548908c1.398319-0.007171 2.739272 0.552157 3.721681 1.548908z m0 0M146.694454 688.338824a5.272022 5.272022 0 0 0 5.076975 1.362465 5.241905 5.241905 0 0 0 3.714509-3.71451c0.487619-1.81423-0.035854-3.750364-1.362465-5.076975a5.272022 5.272022 0 0 0-5.076974-1.362465c-1.81423 0.487619-3.226891 1.90028-3.71451 3.71451-0.480448 1.81423 0.035854 3.750364 1.362465 5.076975z m0 0M117.021401 688.338824a5.272022 5.272022 0 0 0 5.076974 1.362465c1.81423-0.487619 3.226891-1.907451 3.71451-3.71451a5.251944 5.251944 0 1 0-6.43944-6.432269c-1.81423 0.487619-3.226891 1.90028-3.714509 3.71451a5.263417 5.263417 0 0 0 1.362465 5.069804z m0 0M125.877423 699.410644c0 3.477871 1.857255 6.69042 4.86902 8.432941a9.723697 9.723697 0 0 0 9.738039 0 9.738039 9.738039 0 0 0 4.861849-8.432941c0-3.477871-1.857255-6.69042-4.861849-8.432941a9.723697 9.723697 0 0 0-9.738039 0 9.74521 9.74521 0 0 0-4.86902 8.432941z m0 0M591.761569 674.506218c3.011765 3.011765 3.004594 7.895126-0.007171 10.89972-3.011765 3.011765-7.887955 3.011765-10.89972 0s-3.011765-7.887955-0.007171-10.89972c1.441345-1.455686 3.406162-2.273165 5.457031-2.273165 2.050868 0 4.015686 0.817479 5.457031 2.273165z m0-43.670588c2.208627 2.201457 2.868347 5.521569 1.677983 8.404258a7.701513 7.701513 0 0 1-7.120672 4.761457c-3.119328 0-5.930308-1.878768-7.127844-4.761457-1.190364-2.882689-0.530644-6.202801 1.677984-8.404258 1.441345-1.448515 3.406162-2.265994 5.44986-2.265994 2.036527 0 4.001345 0.817479 5.442689 2.265994z m0 0M624.467899 641.807059a7.730196 7.730196 0 0 0 7.450532 1.993501c2.660392-0.717087 4.739944-2.789468 5.44986-5.457031a7.715854 7.715854 0 0 0-9.451204-9.444033c-2.660392 0.717087-4.739944 2.796639-5.44986 5.457031-0.717087 2.667563 0.050196 5.507227 2.000672 7.450532z m0 0M624.460728 685.456134c1.950476 1.950476 4.79014 2.710588 7.450533 2.000673 2.660392-0.709916 4.739944-2.789468 5.45703-5.44986 0.717087-2.660392-0.050196-5.500056-1.993501-7.450532a7.696493 7.696493 0 0 0-7.450532-1.993502c-2.660392 0.709916-4.739944 2.789468-5.457031 5.44986-0.717087 2.653221 0.043025 5.500056 1.993501 7.443361z m0 0M593.783754 658.178151c0 5.12 2.732101 9.845602 7.163697 12.405603 4.431597 2.56 9.895798 2.56 14.327395 0a14.325961 14.325961 0 0 0 7.163697-12.405603c0-5.12-2.732101-9.852773-7.163697-12.412773a14.324527 14.324527 0 0 0-14.327395 0 14.337434 14.337434 0 0 0-7.163697 12.412773z m0 0M764.063193 594.895238s-4.86902-0.501961-4.073053-4.71126c0.795966-4.2093 5.77972-3.298599 5.77972-3.2986l58.894342 3.707339-10.440785 11.781737-50.160224-7.479216z m75.674174 12.670924l-22.495014-3.936806 11.122017-13.280448 40.873949 0.136246-29.500952 17.081008z m0 0M898.81098 668.862745c0 10.741961 8.705434 19.447395 19.447395 19.447395s19.447395-8.705434 19.447395-19.447395-8.705434-19.447395-19.447395-19.447395c-10.741961 0.007171-19.447395 8.712605-19.447395 19.447395z m0 0" p-id="5546" fill="#1296db"></path><path d="M838.69042 711.988347v-2.839664s57.094454 4.367059 80.657927 6.095239 50.339496-23.341176 49.930757-47.134118c-0.408739-23.792941-23.04-40.938487-46.768404-44.330308-23.721232-3.391821-73.286275-13.416695-73.286274-13.416695l69.076975-36.392157 79.61098 45.99395V711.92381l-79.61098 46.058487-79.610981-45.99395z m0 0" p-id="5547" fill="#1296db"></path><path d="M956.127731 661.383529a34.648202 34.648202 0 0 1-8.576358 29.493782 34.656807 34.656807 0 0 1-28.640449 11.086162c-5.528739-0.523473-156.281905-15.510588-156.281904-15.510588l-0.681233-79.61098s153.671709 27.679552 168.321793 30.182185c14.642913 2.502633 24.237535 15.259608 25.858151 24.359439zM615.210308 258.416583l-158.648291 7.988347-2.911373 22.036078 128.401569 17.58297s27.428571 8.117423 25.721905 42.422857c-1.706667 34.305434-33.459272 39.009524-33.459272 39.009524L441.524706 370.231933l-67.255574 247.201344 117.501848-81.453893c16.629244-10.871036 30.210868-24.682129 50.03832-24.682129h75.265434l-1.864426-252.880672zM419.323697 378.127059c-30.275406-1.183193-122.829804-4.797311-182.376694 2.050868-69.765378 8.002689-194.093894 23.20493-194.093894 23.20493s-0.860504 24.861401-11.143529 65.168852c-10.283025 40.307451-13.172885 42.946331-13.172885 42.94633l-1.706667 18.020392 340.436975 80.858712 62.056694-232.250084z m0 0" p-id="5548" fill="#1296db"></path></svg>